<?xml version="1.0" encoding="UTF-8"?>
<svg xmlns="http://www.w3.org/2000/svg" data-name="Layer 1" id="Layer_1" viewBox="0 0 64 64">
	<path class="cls-1" d="M47,17v6a2,2,0,0,0,2,2h6l-8-8H41V46a2,2,0,0,1-2,2H11a2,2,0,0,1-2-2V7a2,2,0,0,1,2-2H33l8,8H35a2,2,0,0,1-2-2V5" style="fill: none; stroke: #FFFFFF; stroke-linecap: round; stroke-linejoin: round; stroke-width: 2px;"/>
	<path class="cls-1" d="M55,29V57a2,2,0,0,1-2,2H25a2,2,0,0,1-2-2V48" style="fill: none; stroke: white; stroke-linecap: round; stroke-linejoin: round; stroke-width: 2px;"/>
</svg>
